<?xml version="1.0" encoding="UTF-8"?>
<svg 
  width="256" height="256" 
  viewBox="0 0 256 256" 
  fill="none" 
  xmlns="http://www.w3.org/2000/svg"
>
  <!-- Define gradients -->
  <defs>
    <!-- Background radial gradient -->
    <radialGradient id="bgGradient" cx="0.5" cy="0.5" r="0.5">
      <stop offset="0%" stop-color="#FFF9F3"/>
      <stop offset="100%" stop-color="#FDECDC"/>
    </radialGradient>

    <!-- Head highlight gradient -->
    <linearGradient id="headHighlight" x1="128" y1="128" x2="128" y2="180" gradientUnits="userSpaceOnUse">
      <stop offset="0%" stop-color="#FFFFFF" stop-opacity="0.15"/>
      <stop offset="100%" stop-color="#FFFFFF" stop-opacity="0"/>
    </linearGradient>

    <!-- Butterfly tie gradient -->
    <linearGradient id="tieGradient" x1="128" y1="172" x2="128" y2="195">
      <stop offset="0%" stop-color="#2c3e50"/>
      <stop offset="100%" stop-color="#34495E"/>
    </linearGradient>
  </defs>

  <!-- Background circle -->
  <circle cx="128" cy="128" r="96" fill="url(#bgGradient)"/>

  <!-- Rabbit ears silhouette -->
  <path
    d="M100,60 C100,30 120,20 128,20 C136,20 156,30 156,60 C156,90 136,90 128,90 C120,90 100,90 100,60Z"
    fill="#E67E22"
  />
  
  <!-- Inner ear highlights -->
  <path
    d="M114,54 C114,44 122,40 128,40 C134,40 142,44 142,54 C142,64 134,64 128,64 C122,64 114,64 114,54Z"
    fill="#F08C35"
  />

  <!-- Rabbit head (circle) -->
  <circle cx="128" cy="148" r="48" fill="#E67E22"/>

  <!-- Subtle head highlight -->
  <path
    d="M128,100 C150,100 165,115 165,148 C165,175 150,190 128,190 C106,190 91,175 91,148 C91,115 106,100 128,100Z"
    fill="url(#headHighlight)"
  />

  <!-- Eyes (very subtle) -->
  <circle cx="116" cy="144" r="3" fill="#000" opacity="0.1"/>
  <circle cx="140" cy="144" r="3" fill="#000" opacity="0.1"/>

  <!-- Nose -->
  <circle cx="128" cy="154" r="5" fill="#FDE3A7"/>

  <!-- Butterfly Bow Tie -->
  <!-- Left wing -->
  <path
    d="M128,172 C118,172 108,168 105,178 C102,188 112,192 128,192"
    fill="url(#tieGradient)"
  />
  <!-- Right wing -->
  <path
    d="M128,172 C138,172 148,168 151,178 C154,188 144,192 128,192"
    fill="url(#tieGradient)"
  />
  <!-- Center knot -->
  <circle cx="128" cy="182" r="4" fill="#2c3e50"/>
</svg> 